# xmcd
#
# Track frame offsets: 
#        150
#        13123
#        30058
#        44618
#        63198
#        76780
#        91720
#        112405
#        127528
#        140538
#        156203
#        171825
#        188873
#        201440
#
# Disc length: 2859 seconds
#
# Revision: 2
# Processed by: cddbd v1.5.2PL0 Copyright (c) Steve Scherf et al.
# Submitted via: ExactAudioCopy v0.95a5
#
DISCID=af0b290e
DTITLE=Various Artist - Country Hot Hits Vol 06
DYEAR=1900
DGENRE=Country
TTITLE0=ALAN JACKSON - DON'T ROCK THE JUKE BOX
TTITLE1=GARTH BROOKS - THUNDER ROLLS
TTITLE2=SHENANDOAH - MOON OVER GEORGIA
TTITLE3=TRISHA YEARWOOD - SHE'S IN LOVE WITH THE BOY
TTITLE4=T GRAHAM BROWN - WITH THIS RING
TTITLE5=ROB CROSBY - SHE'S A NATURAL
TTITLE6=REBA MCENTIRE - FALLIN' OUT OF LOVE
TTITLE7=BILLY DEAN - SOMEWHERE IN MY BROKEN HEART
TTITLE8=PATTY LOVELESS - BLUE MEMORIES
TTITLE9=DAVID DANIEL - PICTURE ME
TTITLE10=RICKY VAN SHELTON - I AM A SIMPLE MAN
TTITLE11=KELLY WILLIS - BABY TAKE A PIECE OF MY HEART
TTITLE12=LEE GREENWOOD - HOPELESSLY YOURS
TTITLE13=VINCE GILL - LIZA JANE
EXTD=
EXTT0=Jackson - Alan
EXTT1=Brooks - Garth
EXTT2=Shenandoah
EXTT3=Yearwood - Trisha
EXTT4=Brown - T. Graham
EXTT5=Crosby - Rob
EXTT6=McEntire - Reba
EXTT7=Dean - Billy
EXTT8=Loveless - Patty
EXTT9=Davis - Daniel
EXTT10=VanShelton - Ricky
EXTT11=Willis - Kelly
EXTT12=Boguss - Susie
EXTT13=Gill - Vince
PLAYORDER=
